<?xml version="1.0" encoding="iso-8859-1"?>
<!-- Generator: Adobe Illustrator 16.0.0, SVG Export Plug-In . SVG Version: 6.00 Build 0)  -->
<!DOCTYPE svg PUBLIC "-//W3C//DTD SVG 1.1//EN" "http://www.w3.org/Graphics/SVG/1.1/DTD/svg11.dtd">
<svg version="1.1" id="Capa_1" xmlns="http://www.w3.org/2000/svg" xmlns:xlink="http://www.w3.org/1999/xlink" x="0px" y="0px"
	 width="24.68px" height="24.68px" viewBox="0 0 24.68 24.68" style="enable-background:new 0 0 24.68 24.68;" xml:space="preserve"
	>
<g>
	<g>
		<polygon points="12.705,20.041 20.201,22.095 15.883,15.175 18.156,15.797 14.341,9.682 15.855,10.098 13.454,6.248 14.365,6.485 
			12.34,3.392 10.314,6.485 11.225,6.248 8.823,10.098 10.339,9.682 6.524,15.797 8.796,15.175 4.479,22.095 11.842,20.076 
			11.842,23.789 9.352,24.68 11.842,24.68 12.705,24.68 15.195,24.68 12.705,23.789 		"/>
		<circle cx="12.341" cy="0.484" r="0.484"/>
		<circle cx="11.372" cy="1.452" r="0.484"/>
		<circle cx="13.307" cy="1.452" r="0.484"/>
		<circle cx="10.403" cy="2.421" r="0.484"/>
		<circle cx="12.341" cy="2.421" r="0.484"/>
		<circle cx="14.275" cy="2.421" r="0.484"/>
		<circle cx="9.434" cy="3.389" r="0.484"/>
		<circle cx="11.372" cy="3.389" r="0.484"/>
		<circle cx="13.307" cy="3.389" r="0.484"/>
		<circle cx="15.244" cy="3.389" r="0.484"/>
		<circle cx="10.403" cy="4.358" r="0.484"/>
		<circle cx="14.275" cy="4.358" r="0.484"/>
	</g>
</g>
<g>
</g>
<g>
</g>
<g>
</g>
<g>
</g>
<g>
</g>
<g>
</g>
<g>
</g>
<g>
</g>
<g>
</g>
<g>
</g>
<g>
</g>
<g>
</g>
<g>
</g>
<g>
</g>
<g>
</g>
</svg>
